<?xml version="1.0" encoding="UTF-8" standalone="no"?>
<!-- Created with Inkscape (http://www.inkscape.org/) -->

<svg
   version="1.1"
   id="svg1"
   width="95.016502"
   height="76.722893"
   viewBox="0 0 95.0165 76.722893"
   sodipodi:docname="spadethief.svg"
   inkscape:version="1.3.2 (091e20ef0f, 2023-11-25, custom)"
   xml:space="preserve"
   inkscape:export-filename="spadethief.png"
   inkscape:export-xdpi="300"
   inkscape:export-ydpi="300"
   xmlns:inkscape="http://www.inkscape.org/namespaces/inkscape"
   xmlns:sodipodi="http://sodipodi.sourceforge.net/DTD/sodipodi-0.dtd"
   xmlns="http://www.w3.org/2000/svg"
   xmlns:svg="http://www.w3.org/2000/svg"><defs
     id="defs1" /><sodipodi:namedview
     id="namedview1"
     pagecolor="#676767"
     bordercolor="#999999"
     borderopacity="1"
     inkscape:showpageshadow="0"
     inkscape:pageopacity="0"
     inkscape:pagecheckerboard="0"
     inkscape:deskcolor="#d1d1d1"
     inkscape:zoom="4.607555"
     inkscape:cx="-22.571624"
     inkscape:cy="43.406969"
     inkscape:window-width="2525"
     inkscape:window-height="1430"
     inkscape:window-x="0"
     inkscape:window-y="0"
     inkscape:window-maximized="0"
     inkscape:current-layer="g1"
     showgrid="false" /><g
     inkscape:groupmode="layer"
     inkscape:label="Image"
     id="g1"
     transform="translate(8.5692739,2.7823105)"><path
       style="fill:#ffffff;stroke:none;stroke-width:1px;stroke-linecap:butt;stroke-linejoin:miter;stroke-opacity:1"
       d="m 85.611679,73.105039 c 0.102399,-5.616238 -7.692821,-13.030127 -7.692821,-13.030127 0,0 1.484126,-13.037077 -3.502862,-25.015988 C 69.429006,23.080012 67.238767,21.2933 62.450202,17.05127 57.661638,12.809241 49.721867,8.5781459 45.160665,6.8779729 40.599462,5.1778007 38.146703,4.4863559 34.474747,3.6721073 28.468384,2.3402083 29.052806,2.7890328 29.052806,2.7890328 c 0.776087,4.528725 0.538694,8.6498912 0.90816,12.9062622 0,0 -3.634654,-3.493987 -4.347988,-4.317838 -2.976179,-3.4372812 -4.122807,-4.6111459 -4.122807,-4.6111459 0,0 -1.452038,1.2721944 -2.044396,2.5145006 -0.592359,1.2423053 -2.438221,5.2073623 -3.344765,8.0731703 -0.906545,2.865808 -1.870948,5.922835 -2.19597,8.884156 -0.325027,2.961321 -0.259982,5.96019 -0.259982,5.96019 0,0 -0.81578,-1.338663 -1.985242,-2.278437 -1.169462,-0.939772 -3.3898455,-2.41403 -4.7238082,-2.463987 -1.3339608,-0.04996 -1.9737005,0.789768 -2.5783778,2.975897 -0.6046774,2.18613 0.1359401,4.701178 0.3704385,5.944435 0.2344978,1.243257 1.6324177,5.005486 1.6324177,5.005486 z"
       id="path983"
       sodipodi:nodetypes="ccssssccscssscsssscc" /><path
       style="fill:#030303;stroke:none"
       d="M 30.274173,3.9625129 30.86393,17.843297 21.21316,7.9106317 c -3.995258,6.0829503 -6.672558,15.8890003 -6.679211,23.1455653 -0.0038,4.179254 1.118013,8.21739 1.326376,12.344421 l -0.318521,-0.03073 C 15.011915,36.244282 13.453076,31.648205 6.6704984,28.690134 c -1.8763259,3.050757 -1.5922537,9.165471 1.2232711,11.741858 1.9149713,1.752324 5.4609575,2.358071 7.8480685,3.24544 3.245344,1.206404 6.287968,3.065038 9.685345,3.861011 -0.691968,-3.119244 -3.220359,-9.445299 -0.828834,-12.261445 1.415557,-1.66689 3.560249,-0.910021 5.240809,-0.147034 3.364965,1.527719 7.023381,4.061663 7.258666,8.069154 l -0.318522,-0.03073 c -1.238873,-3.415672 -4.048979,-5.613099 -7.371364,-6.900999 -1.273374,-0.493616 -3.436963,-1.421783 -4.110578,0.346862 -0.99609,2.615344 0.278694,10.378502 2.628548,12.032225 3.977743,2.799357 10.000753,4.068397 14.50614,5.907732 C 53.342399,59.008376 64.258573,63.484 75.234063,67.774909 78.332475,50.24395 73.556996,29.097667 59.518726,17.40211 51.163453,10.441168 40.497449,6.899392 30.274173,3.9625129 m 8.402084,26.2079721 c 1.042251,-2.443629 1.219394,-4.94733 -1.296536,-6.5548 0.509063,-0.946706 1.033759,-1.88637 1.920621,-2.536671 5.872234,-4.305887 13.782958,6.548807 5.701019,10.173254 -0.921806,0.413395 -1.933036,0.609551 -2.94173,0.503784 -1.307895,-0.137139 -2.343836,-0.839725 -3.383374,-1.585567 m 39.114253,31.099864 -0.03853,7.156532 6.15484,2.756631 c -0.74019,-3.247696 -3.755268,-7.594687 -6.11631,-9.913163 z"
       id="path1"
       sodipodi:nodetypes="cccscccsscssccsssscscccsssccccc" /><path
       style="fill:#ffffff;stroke:#ffffff;stroke-width:1.8;stroke-linecap:round;stroke-linejoin:miter;stroke-dasharray:none;stroke-opacity:1"
       d="M 85.611679,73.105039 -1.8590253,38.091548"
       id="path982"
       sodipodi:nodetypes="cc" /><path
       style="fill:#37c871;stroke:none;stroke-width:1px;stroke-linecap:butt;stroke-linejoin:miter;stroke-opacity:1"
       d="m 16.99014,40.518491 c 5.317618,-0.613982 10.840626,-7.486794 18.483929,-8.263173 7.602543,-0.772237 27.745636,-2.901771 34.048375,7.93368 6.302742,10.835451 7.314122,17.568462 0.258691,21.972707 C 62.32695,66.814868 49.484419,62.44614 45.986084,57.24338 42.487748,52.040622 42.138807,42.657171 37.795273,40.695996 35.029591,39.447247 27.315869,42.015725 23.26862,43.953433 c -1.670146,0.799619 -2.913267,3.030269 -2.913267,3.030269 z"
       id="path2"
       sodipodi:nodetypes="csssssscc" /><path
       style="fill:#16502d;stroke:none;stroke-width:1px;stroke-linecap:butt;stroke-linejoin:miter;stroke-opacity:1"
       d="m 29.127278,41.658745 c 9.362453,-6.975279 13.036188,0.86801 20.183363,11.806344 1.48308,2.269769 7.744048,4.685987 12.369128,4.29134 4.62508,-0.394647 7.058793,0.527972 9.142408,-1.258616 2.083614,-1.786587 3.759178,-3.870898 3.759178,-3.870898 0,0 0.233171,4.938469 -1.675531,6.814929 -1.908701,1.876457 -6.775987,6.617791 -15.325066,4.226007 -8.54908,-2.391782 -10.507269,-4.490873 -11.594674,-6.424471 -1.093107,-1.943737 -4.226915,-10.799071 -6.833652,-15.587684 -1.704198,-3.130637 -8.054955,-0.688899 -10.025154,0.003 z"
       id="path3"
       sodipodi:nodetypes="cssscssssc" /><path
       style="fill:#000000;stroke:none;stroke-width:1px;stroke-linecap:butt;stroke-linejoin:miter;stroke-opacity:1"
       d="M 28.9402,48.180975 C 26.147694,47.688864 24.154993,44.09976 24.15259,41.8163 c -0.0024,-2.28346 -0.284788,-5.707561 0.530298,-6.074447 0.815089,-0.366887 4.591682,-0.837964 6.216829,0.209867 1.625148,1.047832 4.790408,4.026101 5.14665,4.951515"
       id="path14" /><path
       style="fill:none;stroke:#000000;stroke-width:1px;stroke-linecap:butt;stroke-linejoin:miter;stroke-opacity:1"
       d="m 16.99014,40.518491 c 5.008846,-0.257432 10.840626,-7.486794 18.483929,-8.263173 7.602543,-0.772237 27.745636,-2.901771 34.048375,7.93368 6.302742,10.835451 7.314122,17.568462 0.258691,21.972707 C 62.32695,66.814868 49.484419,62.44614 45.986084,57.24338 42.487748,52.040622 42.138807,42.657171 37.795273,40.695996 34.886119,39.382467 27.10514,42.117068 23.26862,43.953433 c -1.315901,0.629862 -2.913267,3.030269 -2.913267,3.030269 z"
       id="path4"
       sodipodi:nodetypes="csssssscc" /><path
       d="m 25.435906,47.545569 c -0.691969,-3.119244 -3.22036,-9.445298 -0.828835,-12.261444 1.415557,-1.666891 3.56025,-0.910021 5.240809,-0.147035 3.364965,1.52772 7.023382,4.061663 7.258667,8.069155 l -0.318522,-0.03073 c -1.238874,-3.415672 -4.04898,-5.613099 -7.371365,-6.900999 -1.273374,-0.493615 -3.436962,-1.421782 -4.110578,0.346862 -0.996089,2.615343 0.278694,10.378502 2.628548,12.032226"
       style="fill:#ffffff;stroke:none"
       id="path1-0" /><path
       style="fill:#4d4d4d;stroke:none;stroke-width:1px;stroke-linecap:butt;stroke-linejoin:miter;stroke-opacity:1"
       d="M -8.5692739,3.0466524 C 0.54529342,-4.1869077 8.3938382,-3.9841101 9.7849645,-0.16687188 11.17609,3.6503672 10.983492,12.057737 10.983492,12.057737 l -4.7389355,0.3086 c 0,0 -0.1563761,-5.4228583 -1.7928832,-6.6535325 C 2.8151662,4.4821254 2.4904022,5.3943342 0.6415661,5.812644 -1.2937035,6.250515 -5.5115242,8.7928821 -5.5115242,8.7928821 L -7.1342494,5.9701316 -0.48816491,1.8866798 -7.2172376,5.6143409 Z"
       id="path5"
       sodipodi:nodetypes="csccssccccc" /><path
       style="fill:#333333;stroke:none;stroke-width:1px;stroke-linecap:butt;stroke-linejoin:miter;stroke-opacity:1"
       d="M -7.2172376,5.6143409 -0.29849826,0.75870144 -0.48816339,1.88668"
       id="path6"
       sodipodi:nodetypes="ccc" /><path
       style="fill:#4d4d4d;stroke:none;stroke-width:1px;stroke-linecap:butt;stroke-linejoin:miter;stroke-opacity:1"
       d="M -7.1342494,5.9701316 -0.39333149,1.3226912 0.92087607,4.0990727"
       id="path7" /><path
       style="fill:#333333;stroke:none;stroke-width:1px;stroke-linecap:butt;stroke-linejoin:miter;stroke-opacity:1"
       d="m -5.5115242,8.7928821 c 4.2873547,-3.3241005 7.1705206,-5.8135065 8.3553438,-5.4920163 1.1848597,0.32135 1.9440619,1.0081953 2.3773736,2.106277 0.090483,0.2293159 1.2800074,5.2952872 1.023363,6.9591902 -1.3156534,0.01991 -0.417198,0.0077 -1.3156534,0.01991 C 4.5558083,10.167533 4.6178578,5.8639416 3.6763223,5.2400208 0.51832057,5.5166628 -5.5115242,8.7928821 -5.5115242,8.7928821"
       id="path8"
       sodipodi:nodetypes="csscccc" /><path
       style="fill:#a05a2c;stroke:none;stroke-width:1px;stroke-linecap:butt;stroke-linejoin:miter;stroke-opacity:1"
       d="m 4.9289028,12.386243 1.9851252,28.279316 6.266634,2.178825 -2.19717,-30.786647"
       id="path9" /><path
       style="fill:#552200;stroke:none;stroke-width:1px;stroke-linecap:butt;stroke-linejoin:miter;stroke-opacity:1"
       d="M 4.9289028,12.386243 6.2445563,12.366335 8.4188366,41.188762 6.9140261,40.665561 Z"
       id="path10" /></g></svg>
