<?xml version="1.0" encoding="UTF-8" standalone="no"?>
<!-- Created with Inkscape (http://www.inkscape.org/) -->

<svg
   width="70.238754mm"
   height="83.079102mm"
   viewBox="0 0 70.238754 83.079102"
   version="1.1"
   id="svg1"
   inkscape:version="1.3.2 (091e20ef0f, 2023-11-25, custom)"
   sodipodi:docname="spadeBlazinglyFast.svg"
   inkscape:export-filename="spadeBlazinglyFast.png"
   inkscape:export-xdpi="300"
   inkscape:export-ydpi="300"
   xmlns:inkscape="http://www.inkscape.org/namespaces/inkscape"
   xmlns:sodipodi="http://sodipodi.sourceforge.net/DTD/sodipodi-0.dtd"
   xmlns:xlink="http://www.w3.org/1999/xlink"
   xmlns="http://www.w3.org/2000/svg"
   xmlns:svg="http://www.w3.org/2000/svg">
  <sodipodi:namedview
     id="namedview1"
     pagecolor="#ffffff"
     bordercolor="#666666"
     borderopacity="1.0"
     inkscape:showpageshadow="2"
     inkscape:pageopacity="0.0"
     inkscape:pagecheckerboard="0"
     inkscape:deskcolor="#d1d1d1"
     inkscape:document-units="mm"
     inkscape:zoom="1.8563323"
     inkscape:cx="231.37022"
     inkscape:cy="248.87786"
     inkscape:window-width="1258"
     inkscape:window-height="1068"
     inkscape:window-x="0"
     inkscape:window-y="0"
     inkscape:window-maximized="0"
     inkscape:current-layer="layer1" />
  <defs
     id="defs1">
    <radialGradient
       inkscape:collect="always"
       xlink:href="#linearGradient1710"
       id="radialGradient1714"
       cx="574.1521"
       cy="404.00015"
       fx="574.1521"
       fy="404.00015"
       r="478.64615"
       gradientTransform="matrix(0.26458333,0,0,0.20896715,-15.283246,76.452729)"
       gradientUnits="userSpaceOnUse" />
    <linearGradient
       inkscape:collect="always"
       id="linearGradient1710">
      <stop
         style="stop-color:#00ffff;stop-opacity:1;"
         offset="0"
         id="stop1706" />
      <stop
         style="stop-color:#00ffff;stop-opacity:0;"
         offset="1"
         id="stop1708" />
    </linearGradient>
  </defs>
  <g
     inkscape:label="Layer 1"
     inkscape:groupmode="layer"
     id="layer1"
     transform="translate(-64.583561,-81.227751)">
    <path
       id="path857-9-3-8-2-4-2-5-4-4-0-8-4-9-9-6-7-3-4-0-4"
       style="fill:#ffffff;fill-opacity:1;stroke:#444afd;stroke-width:3.57;stroke-linecap:round;stroke-linejoin:bevel;stroke-dasharray:none;stroke-opacity:1"
       d="m 80.005583,105.02033 c -4.436084,0.0141 -6.6616,1.34472 -6.6616,1.34472 l 0.01614,0.0518 -0.05339,-0.0121 c 0.176318,1.2489 11.542977,10.57958 11.471987,15.33247 -0.26747,3.86697 -1.37782,4.92548 -2.23559,7.54944 -6.683909,-9.04961 -15.149835,-9.36882 -15.971313,-9.37908 h -0.08948 l -0.0079,0.0318 -0.02942,-0.0207 c -0.388832,0.90844 2.631598,7.32814 2.631598,13.34082 0,6.01264 -3.02043,12.43236 -2.631598,13.34078 l 0.02942,-0.0222 0.0079,0.0326 c 0,0 9.074361,0.20209 16.335823,-9.87839 0.79965,2.05693 1.73702,5.59662 1.48426,8.13871 -0.51668,2.84882 -10.379656,13.64842 -10.536422,14.83714 l 0.05339,-0.0122 -0.01614,0.0526 c 0,0 7.512662,3.2416 25.403072,-3.79582 4.1721,-1.64118 7.47421,-2.98958 10.66,-4.23529 0.38942,4.66175 2.32368,10.25739 2.81001,10.83551 l 0.0201,-0.0353 0.0201,0.0353 c 0,0 7.5752,-1.43251 10.41281,-17.11513 7.81351,-5.88746 9.47557,-12.27436 9.47557,-12.27436 l -0.0758,-0.0439 0.0758,-0.0437 c 0,0 -2.11622,-13.9363 -30.44394,-23.11713 -9.38405,-3.04129 -17.82426,-4.95311 -22.155142,-4.93876 z"
       sodipodi:nodetypes="ccccccccccsccccccccsccccccccscc"
       inkscape:export-filename="/home/ed/spadefish.png"
       inkscape:export-xdpi="300"
       inkscape:export-ydpi="300" />
    <path
       id="path857-9-3-8-2-4-2-5-4-4-0-8-4-9-9-6-7-3-4-0"
       style="fill:#000000;fill-opacity:1;stroke:none;stroke-width:0.0700042px;stroke-linecap:butt;stroke-linejoin:miter;stroke-opacity:1"
       d="m 80.00565,105.02033 c -4.43609,0.0141 -6.6616,1.34472 -6.6616,1.34472 l 0.0161,0.0518 -0.0534,-0.0121 c 0.17632,1.2489 11.54297,10.57958 11.47199,15.33247 -0.26747,3.86697 -1.37782,4.92548 -2.2356,7.54944 -6.6839,-9.04961 -15.14983,-9.36882 -15.97131,-9.37908 h -0.0895 l -0.008,0.0318 -0.0294,-0.0207 c -0.38883,0.90844 2.6316,7.32814 2.6316,13.34082 0,6.01264 -3.02043,12.43236 -2.6316,13.34078 l 0.0294,-0.0222 0.008,0.0326 c 0,0 9.07436,0.20209 16.33583,-9.87839 0.79965,2.05693 1.73701,5.59662 1.48426,8.13871 -0.51668,2.84882 -10.37966,13.64842 -10.53643,14.83714 l 0.0534,-0.0122 -0.0161,0.0526 c 0,0 7.51266,3.2416 25.40307,-3.79582 4.17211,-1.64118 7.47422,-2.98958 10.66001,-4.23529 0.38942,4.66175 2.32368,10.25739 2.81001,10.83551 l 0.0201,-0.0353 0.0201,0.0353 c 0,0 7.5752,-1.43251 10.41281,-17.11513 7.81351,-5.88746 9.47557,-12.27436 9.47557,-12.27436 l -0.0758,-0.0439 0.0758,-0.0437 c 0,0 -2.11622,-13.9363 -30.44394,-23.11713 -9.38405,-3.04129 -17.82426,-4.95311 -22.15515,-4.93876 z m 40.56158,19.62354 c 2.9718,-4e-5 5.38104,2.40889 5.38149,5.38068 0,1.42263 -0.56602,2.78681 -1.57046,3.79421 -0.96676,-0.80452 -2.1848,-1.24505 -3.4425,-1.24505 -1.42964,0 -2.79997,0.57164 -3.80859,1.58482 -1.22878,-1.02137 -1.94138,-2.53608 -1.94138,-4.13398 0,-2.97183 2.40961,-5.38072 5.38144,-5.38068 z"
       sodipodi:nodetypes="ccccccccccsccccccccsccccccccsccsccsccs"
       inkscape:export-filename="/home/ed/spadefish.png"
       inkscape:export-xdpi="300"
       inkscape:export-ydpi="300" />
    <g
       id="g19"
       transform="matrix(0.19199696,0.04424096,-0.04424096,0.19199696,86.966358,68.007615)"
       style="stroke-width:1.34287">
      <g
         transform="matrix(0.26458333,0,0,0.26458333,246.95163,188.99491)"
         id="g1102"
         style="clip-rule:evenodd;fill-rule:evenodd;stroke-width:1.34287;stroke-linejoin:round;stroke-miterlimit:1.41421">
            <path
   d="m 0,-7.203 -12.072,-25.006 c 0.063,-0.947 0.111,-1.898 0.111,-2.853 0,-28.346 -29.478,-54.471 -79.069,-75.389 v 17.393 c -4.836,-1.919 -9.871,-3.787 -15.117,-5.593 v -8.108 c -70.874,-25.56 -176.383,-41.778 -294.241,-41.778 -102.973,0 -196.529,12.38 -265.791,32.554 v 28.246 h -0.002 v -34.188 c -70.96,22.55 -114.954,53.877 -114.954,88.515 0,5.46 1.101,10.838 3.217,16.113 l -7.228,12.867 c 0,0 -5.792,7.512 4.406,23.362 8.994,13.977 54.048,68.685 77.827,97.335 10.214,14.687 17.141,23.734 17.746,22.859 0.955,-1.386 -6.351,-28.961 -26.635,-60.423 -9.466,-16.895 -20.768,-39.283 -27.554,-55.819 18.942,11.99 130.23,68.029 357.232,67.801 231.994,-0.232 335.115,-72.851 346.433,-82.737 -3.955,15.889 -17.468,48.033 -28.245,70.638 -17.706,32.331 -24.12,60.478 -23.296,61.87 0.524,0.878 6.565,-8.441 15.476,-23.543 C -51.025,87.37 -11.739,30.974 -3.889,16.608 5.007,0.323 0,-7.203 0,-7.203"
   style="fill:#a52b00;fill-rule:nonzero;stroke-width:1.34287"
   id="path1100"
   inkscape:connector-curvature="0" />

        </g>
      <g
         transform="matrix(0.26458333,0,0,0.26458333,265.49628,133.04162)"
         id="g1106"
         style="clip-rule:evenodd;fill-rule:evenodd;stroke-width:1.34287;stroke-linejoin:round;stroke-miterlimit:1.41421">
            <path
   d="m 0,204.135 -79.343,-58.446 c -0.745,-2.6 -1.49,-5.201 -2.26,-7.781 l 26.062,-37.754 c 2.66,-3.84 3.196,-8.832 1.469,-13.211 -1.731,-4.358 -5.515,-7.482 -9.99,-8.247 l -44.066,-7.479 c -1.709,-3.485 -3.498,-6.916 -5.294,-10.319 L -94.907,18.51 c 1.903,-4.317 1.505,-9.335 -1.022,-13.254 -2.517,-3.937 -6.786,-6.237 -11.338,-6.058 l -44.724,1.625 c -2.315,-3.016 -4.667,-6.003 -7.067,-8.937 l 10.278,-45.432 c 1.042,-4.612 -0.274,-9.443 -3.487,-12.794 -3.195,-3.339 -7.838,-4.722 -12.253,-3.639 l -43.562,10.709 c -2.82,-2.493 -5.688,-4.953 -8.588,-7.365 l 1.567,-46.641 c 0.168,-4.721 -2.033,-9.208 -5.812,-11.829 -3.777,-2.636 -8.57,-3.032 -12.701,-1.074 l -40.638,19.321 c -3.273,-1.878 -6.565,-3.737 -9.892,-5.537 l -7.181,-45.961 c -0.729,-4.656 -3.724,-8.612 -7.919,-10.418 -4.185,-1.817 -8.976,-1.228 -12.648,1.536 l -36.232,27.185 c -3.569,-1.185 -7.153,-2.32 -10.779,-3.407 l -15.617,-43.585 c -1.588,-4.443 -5.25,-7.706 -9.716,-8.624 -4.45,-0.909 -9.028,0.632 -12.114,4.08 l -30.499,34.119 c -3.685,-0.423 -7.377,-0.81 -11.076,-1.131 l -23.549,-39.676 c -2.384,-4.018 -6.597,-6.464 -11.139,-6.464 -4.529,0 -8.75,2.446 -11.118,6.464 l -23.555,39.676 c -3.701,0.321 -7.408,0.708 -11.088,1.131 l -30.499,-34.119 c -3.09,-3.448 -7.684,-4.989 -12.122,-4.08 -4.46,0.93 -8.128,4.181 -9.707,8.624 l -15.629,43.585 c -3.621,1.087 -7.205,2.23 -10.78,3.407 l -36.22,-27.185 c -3.683,-2.774 -8.478,-3.361 -12.668,-1.536 -4.181,1.806 -7.188,5.762 -7.913,10.418 l -7.186,45.961 c -3.322,1.8 -6.614,3.649 -9.895,5.537 l -40.634,-19.321 c -4.127,-1.966 -8.945,-1.562 -12.704,1.074 -3.773,2.621 -5.98,7.108 -5.81,11.829 l 1.562,46.641 c -2.894,2.412 -5.756,4.872 -8.591,7.365 l -43.554,-10.709 c -4.423,-1.074 -9.062,0.3 -12.265,3.639 -3.221,3.351 -4.526,8.182 -3.491,12.794 l 10.257,45.432 c -2.378,2.945 -4.733,5.921 -7.042,8.937 l -44.724,-1.625 c -4.513,-0.135 -8.821,2.121 -11.343,6.058 -2.527,3.919 -2.91,8.937 -1.029,13.254 l 18.528,42.388 c -1.799,3.403 -3.586,6.834 -5.309,10.319 l -44.063,7.479 c -4.479,0.754 -8.252,3.876 -9.994,8.247 -1.728,4.379 -1.167,9.371 1.474,13.211 l 26.066,37.754 c -0.201,0.667 -0.387,1.339 -0.587,2.008 l -73.696,78.285 c 0,0 -11.296,8.851 5.147,29.654 14.5,18.351 88.951,91.096 128.271,129.205 16.606,19.348 27.984,31.329 29.172,30.293 1.876,-1.645 -7.972,-36.847 -40.682,-78.149 -25.216,-37.056 -57.941,-94.049 -50.267,-100.618 0,0 8.729,-11.081 26.242,-19.057 0.641,0.512 -0.662,-0.507 0,0 0,0 369.595,170.491 712.429,2.884 39.164,-7.025 62.873,13.955 62.873,13.955 8.176,4.74 -12.996,63.344 -30.407,102.137 -23.679,44.05 -27.151,78.422 -25.144,79.614 1.268,0.757 9.883,-12.353 22.172,-33.217 C -67.814,332.649 -10.492,252.1 0,232.534 11.895,210.352 0,204.135 0,204.135"
   style="fill:#f74c00;fill-rule:nonzero;stroke-width:1.34287"
   id="path1104"
   inkscape:connector-curvature="0" />

        </g>
      <g
         transform="matrix(0.26458333,0,0,0.26458333,222.74121,119.75795)"
         id="g1110"
         style="clip-rule:evenodd;fill-rule:evenodd;stroke-width:1.34287;stroke-linejoin:round;stroke-miterlimit:1.41421">
            <path
   d="m 23.488052,214.74557 c 0,0 -1.71888,53.20839 -71.72682,124.05161 l -21.83781,10.20571 c 0,0 -109.360042,-106.89163 -181.428692,62.67227 0,0 23.90239,-15.09218 117.11401,-12.07201 0,0 -16.93359,51.05787 -99.00722,67.11114 0,0 98.75535,72.74019 188.227702,-83.15378 0,0 115.25874,-74.16608 102.68456,-176.26455 z"
   style="fill:#f74c00;fill-rule:nonzero;stroke-width:1.34287"
   id="path1108"
   inkscape:connector-curvature="0" />

        </g>
      <g
         transform="matrix(0.26458333,0,0,0.26458333,159.00336,184.23214)"
         id="g1114"
         style="clip-rule:evenodd;fill-rule:evenodd;stroke-width:1.34287;stroke-linejoin:round;stroke-miterlimit:1.41421">
            <path
   d="m 0,-78.192 c 0,0 36.935,-40.443 73.871,0 0,0 29.022,53.927 0,80.887 0,0 -47.487,37.748 -73.871,0 0,0 -31.658,-29.659 0,-80.887"
   style="fill-rule:nonzero;stroke-width:1.34287"
   id="path1112"
   inkscape:connector-curvature="0" />

        </g>
      <g
         transform="matrix(0.26458333,0,0,0.26458333,170.318,167.51259)"
         id="g1118"
         style="clip-rule:evenodd;fill-rule:evenodd;stroke-width:1.34287;stroke-linejoin:round;stroke-miterlimit:1.41421">
            <path
   d="m 0,0.004 c 0,15.746 -9.282,28.514 -20.732,28.514 -11.448,0 -20.73,-12.768 -20.73,-28.514 0,-15.75 9.282,-28.518 20.73,-28.518 C -9.282,-28.514 0,-15.746 0,0.004"
   style="fill:#ffffff;fill-rule:nonzero;stroke-width:1.34287"
   id="path1116"
   inkscape:connector-curvature="0" />

        </g>
      <g
         transform="matrix(0.26458333,0,0,0.26458333,115.38706,182.74386)"
         id="g1122"
         style="clip-rule:evenodd;fill-rule:evenodd;stroke-width:1.34287;stroke-linejoin:round;stroke-miterlimit:1.41421">
            <path
   d="m 0,-83.609 c 0,0 63.355,-28.052 80.648,34.562 0,0 18.114,72.98 -52.03,77.099 0,0 -89.444,-17.228 -28.618,-111.661"
   style="fill-rule:nonzero;stroke-width:1.34287"
   id="path1120"
   inkscape:connector-curvature="0" />

        </g>
      <g
         transform="matrix(0.26458333,0,0,0.26458333,123.8061,167.78644)"
         id="g1126"
         style="clip-rule:evenodd;fill-rule:evenodd;stroke-width:1.34287;stroke-linejoin:round;stroke-miterlimit:1.41421">
            <path
   d="m 0,0.002 c 0,16.239 -9.572,29.409 -21.381,29.409 -11.804,0 -21.379,-13.17 -21.379,-29.409 0,-16.244 9.575,-29.411 21.379,-29.411 C -9.572,-29.409 0,-16.242 0,0.002"
   style="fill:#ffffff;fill-rule:nonzero;stroke-width:1.34287"
   id="path1124"
   inkscape:connector-curvature="0" />

        </g>
      <g
         transform="matrix(0.24814351,0.09181033,-0.09181033,0.24814351,72.727528,122.87989)"
         id="g1134"
         style="clip-rule:evenodd;fill-rule:evenodd;stroke-width:1.34287;stroke-linejoin:round;stroke-miterlimit:1.41421">
            <path
   d="m 0,190.741 c -0.667,0 -1.321,0.049 -1.973,0.101 -26.234,-5.971 -99.973,-25.185 -119.464,-56.363 0,0 99.227,-112.872 -55.86,-185.019 l 18.057,124.878 c 0,0 -47.809,-31.949 -58.126,-101.346 0,0 -116.423,84.494 51.384,165.474 0,0 15.22,57.187 161.349,102.815 l 0.107,-0.435 c 1.471,0.272 2.977,0.435 4.526,0.435 13.808,0 25.003,-11.312 25.003,-25.271 0,-13.956 -11.195,-25.269 -25.003,-25.269"
   style="fill:#f74c00;fill-rule:nonzero;stroke-width:1.34287"
   id="path1132"
   inkscape:connector-curvature="0" />

        <path
   d="m 0,190.741 c -0.667,0 -1.321,0.049 -1.973,0.101 -26.234,-5.971 -99.973,-25.185 -119.464,-56.363 0,0 99.22699,-112.872005 -55.86,-185.019005 L -159.24,74.338 c 22.43698,59.69222 53.77681,134.12621 154.60699,166.94301 L -4.526,240.846 c 1.471,0.272 2.977,0.435 4.526,0.43501 13.808,0 25.003,-11.312 25.003001,-25.27101 C 25.003003,202.054 13.808,190.741 0,190.741"
   style="clip-rule:evenodd;fill:#f74c00;fill-rule:nonzero;stroke-width:1.34287;stroke-linejoin:round;stroke-miterlimit:1.41421"
   id="path1132-5"
   inkscape:connector-curvature="0"
   sodipodi:nodetypes="cccccccssc" />
</g>
      <path
         style="clip-rule:evenodd;opacity:0;fill:url(#radialGradient1714);fill-opacity:1;fill-rule:evenodd;stroke:#000000;stroke-width:0.355301px;stroke-linecap:butt;stroke-linejoin:miter;stroke-miterlimit:1.41421;stroke-opacity:1"
         d="M 10.116756,260.76583 C 15.978295,223.15429 11.58214,66.358141 11.58214,66.358141 c 73.594872,9.443591 161.52268,7.799724 251.55768,-5.373076 -15.42907,78.370195 -9.94217,130.913575 -5.37308,199.292305 -77.17691,-8.14103 -145.23223,-14.01621 -247.649984,0.48846 z"
         id="path1690"
         inkscape:connector-curvature="0"
         sodipodi:nodetypes="ccccc" />
      <g
         transform="matrix(0.26458333,0,0,0.26458333,222.74121,119.75795)"
         id="g1198"
         style="clip-rule:evenodd;fill-rule:evenodd;stroke-width:1.34287;stroke-linejoin:round;stroke-miterlimit:1.41421">
            <path
   d="m 23.488052,214.74557 c 0,0 -1.71888,53.20839 -71.72682,124.05161 l -21.83781,10.20571 c -46.854542,-9.50963 -49.698802,13.03167 -64.314682,50.60026 0,0 -16.93359,51.05787 -99.00722,67.11114 0,0 98.75535,72.74019 188.227702,-83.15378 0,0 115.25874,-74.16608 102.68456,-176.26455 z"
   style="fill:#f74c00;fill-rule:nonzero;stroke-width:1.34287"
   id="path1196"
   inkscape:connector-curvature="0"
   sodipodi:nodetypes="cccccccc" />

        </g>
      <path
         style="clip-rule:evenodd;fill:#1a1a1a;fill-rule:evenodd;stroke:#000000;stroke-width:0.355301px;stroke-linecap:butt;stroke-linejoin:miter;stroke-miterlimit:1.41421;stroke-opacity:1"
         d="m 136.39568,192.72747 c 0.53523,13.19449 17.38272,12.0993 18.69009,1.43757"
         id="path1-72"
         sodipodi:nodetypes="cc" />
      <g
         transform="matrix(0.24814351,0.09181033,-0.09181033,0.24814351,72.727528,122.87989)"
         id="g1099"
         style="clip-rule:evenodd;fill-rule:evenodd;stroke-width:1.34287;stroke-linejoin:round;stroke-miterlimit:1.41421">
            <path
   d="m 0,190.741 c -0.667,0 -1.321,0.049 -1.973,0.101 -26.234,-5.971 -99.973,-25.185 -119.464,-56.363 0,0 99.227,-112.872 -55.86,-185.019 l 18.057,124.878 c 27.71594,72.32164 98.093381,148.54974 154.607,166.943 l 0.107,-0.435 c 1.471,0.272 2.977,0.435 4.526,0.435 13.808,0 25.003,-11.312 25.003,-25.271 0,-13.956 -11.195,-25.269 -25.003,-25.269"
   style="fill:#f74c00;fill-rule:nonzero;stroke-width:1.34287"
   id="path1095"
   inkscape:connector-curvature="0"
   sodipodi:nodetypes="cccccccssc" />

        <path
   d="m 0,190.741 c -0.667,0 -1.321,0.049 -1.973,0.101 -26.234,-5.971 -99.973,-25.185 -119.464,-56.363 0,0 99.22699,-112.872005 -55.86,-185.019005 L -159.24,74.338 c 22.43698,59.69222 53.77681,134.12621 154.60699,166.94301 L -4.526,240.846 c 1.471,0.272 2.977,0.435 4.526,0.43501 13.808,0 25.003,-11.312 25.003001,-25.27101 C 25.003003,202.054 13.808,190.741 0,190.741"
   style="clip-rule:evenodd;fill:#f74c00;fill-rule:nonzero;stroke-width:1.34287;stroke-linejoin:round;stroke-miterlimit:1.41421"
   id="path1097"
   inkscape:connector-curvature="0"
   sodipodi:nodetypes="cccccccssc" />
</g>
    </g>
  </g>
</svg>
