<?xml version="1.0" encoding="UTF-8" standalone="no"?>
<!-- Created with Inkscape (http://www.inkscape.org/) -->

<svg
   width="64.194794mm"
   height="58.75288mm"
   viewBox="0 0 64.194791 58.752879"
   version="1.1"
   id="svg17504"
   inkscape:version="1.4.2 (ebf0e940d0, 2025-05-08)"
   sodipodi:docname="spadestoknks.svg"
   inkscape:export-filename="spadestonks.png"
   inkscape:export-xdpi="300"
   inkscape:export-ydpi="300"
   xml:space="preserve"
   xmlns:inkscape="http://www.inkscape.org/namespaces/inkscape"
   xmlns:sodipodi="http://sodipodi.sourceforge.net/DTD/sodipodi-0.dtd"
   xmlns="http://www.w3.org/2000/svg"
   xmlns:svg="http://www.w3.org/2000/svg"><sodipodi:namedview
     id="namedview17506"
     pagecolor="#505050"
     bordercolor="#eeeeee"
     borderopacity="1"
     inkscape:pageshadow="0"
     inkscape:pageopacity="0"
     inkscape:pagecheckerboard="0"
     inkscape:document-units="mm"
     showgrid="false"
     inkscape:zoom="1.428725"
     inkscape:cx="-116.88744"
     inkscape:cy="107.08849"
     inkscape:window-width="1697"
     inkscape:window-height="1145"
     inkscape:window-x="0"
     inkscape:window-y="0"
     inkscape:window-maximized="0"
     inkscape:current-layer="layer1"
     inkscape:showpageshadow="2"
     inkscape:deskcolor="#d1d1d1"
     showguides="true"><sodipodi:guide
       position="29.690001,19.029124"
       orientation="1,0"
       id="guide2"
       inkscape:locked="false" /></sodipodi:namedview><defs
     id="defs17501" /><g
     inkscape:label="Layer 1"
     inkscape:groupmode="layer"
     id="layer1"
     transform="translate(-1.3837854,4.8159424)"><path
       style="fill:#ff991b;fill-opacity:1;stroke:#aa7342;stroke-width:0.459281;stroke-opacity:1"
       d="M 34.941182,38.806741 C 50.474618,28.248967 52.735723,10.853782 52.735723,10.853782 l -7.619575,2.312654 15.702116,-17.495735 4.396594,20.009489 -5.40153,-4.323657 c -0.125617,1.407703 -5.192057,20.512242 -24.872146,27.450208 z"
       id="path2"
       sodipodi:nodetypes="ccccccc" /><path
       style="fill:#ffffff;stroke-width:1.00157;stroke-linecap:round;stop-color:#000000"
       id="path3164"
       sodipodi:type="arc"
       sodipodi:cx="38.058918"
       sodipodi:cy="19.586395"
       sodipodi:rx="3.7157152"
       sodipodi:ry="3.7157152"
       sodipodi:start="0"
       sodipodi:end="6.2825046"
       sodipodi:open="true"
       sodipodi:arc-type="arc"
       d="m 41.774633,19.586395 a 3.7157152,3.7157152 0 0 1 -3.715083,3.715715 3.7157152,3.7157152 0 0 1 -3.716347,-3.71445 3.7157152,3.7157152 0 0 1 3.713818,-3.716979 3.7157152,3.7157152 0 0 1 3.717611,3.713185" /><path
       id="path857-9-3-8-2-4-2-5-4-4-0-8-4-9-9-6-7-3-4"
       style="fill:#000000;fill-opacity:1;stroke:#ffffff;stroke-width:3;stroke-linecap:butt;stroke-linejoin:round;stroke-dasharray:none;stroke-opacity:1"
       d="m 11.72719,3.5953329 c -2.8741203,0.009 -4.3160103,0.87124 -4.3160103,0.87124 l 0.0103,0.0336 7.3980203,9.9257801 c -0.08551,1.788818 -0.89269,3.19117 -1.44842,4.89122 -4.3304603,-5.86317 -9.8154602,-6.06999 -10.3476902,-6.07663 h -0.0579 l -0.005,0.0206 -0.0191,-0.0135 c -0.25191,0.58857 1.7049899,4.74784 1.7049899,8.64341 0,3.89554 -1.9568999,8.05482 -1.7049899,8.64338 l 0.0191,-0.0145 0.005,0.0212 c 0,0 5.8791999,0.13094 10.5838402,-6.40012 0.51808,1.33266 1.12539,3.62599 0.96164,5.27302 -0.33475,1.84571 -6.7248903,8.84267 -6.8264603,9.61284 l 0.0346,-0.008 -0.0103,0.0341 c 0,0 4.8673803,2.1002 16.4584303,-2.45928 2.70309,-1.06331 4.84249,-1.93694 6.90655,-2.74402 0.25231,3.0203 1.50548,6.6457 1.82058,7.02024 l 0.013,-0.0228 0.013,0.0228 c 0,0 4.90791,-0.9281 6.74637,-11.08874 5.06232,-3.81444 6.13915,-7.95247 6.13915,-7.95247 0.0078,-0.04314 0,-0.03787 0,-0.0568 0,0 -1.37107,-9.02922 -19.72437,-14.9774001 -6.07986,-1.97043 -11.54821,-3.20908 -14.35417,-3.19979 z"
       sodipodi:nodetypes="cccccccccsccccccccscccccccscc"
       inkscape:export-filename="/home/ed/spadefish.png"
       inkscape:export-xdpi="300"
       inkscape:export-ydpi="300" /><path
       id="path3164-0"
       style="fill:#ffffff;stroke-width:1.00157;stroke-linecap:round;stop-color:#000000"
       d="m 40.868301,20.142434 c 0,1.025943 -0.415799,1.954784 -1.088084,2.627184 -1.09845,-1.09092 -4.116038,-1.053281 -5.254368,8.94e-4 -0.672513,-0.672171 -1.088629,-1.60087 -1.088978,-2.626813 -6.99e-4,-2.051886 1.661932,-3.715932 3.713818,-3.71698 2.051886,-10e-4 3.716215,1.6613 3.717611,3.713186"
       sodipodi:nodetypes="cccssc" /><path
       id="path1"
       style="fill:#2a7fff;stroke:#2a7fff;stroke-width:0.389799"
       d="m 41.538337,29.901281 -6.499015,17.551383 6.499015,6.214608 6.499013,-6.214608 z" /><path
       style="fill:#2a7fff;fill-opacity:1;stroke:none;stroke-width:0.322001;stroke-opacity:1"
       d="m 40.182542,32.40734 -1.601843,-1.931955 4.92788,-4.451642 -1.05278,8.23681"
       id="path3"
       sodipodi:nodetypes="cccc" /></g></svg>
