<?xml version="1.0" encoding="UTF-8" standalone="no"?>
<!-- Created with Inkscape (http://www.inkscape.org/) -->

<svg
   width="42.88689mm"
   height="37.275253mm"
   viewBox="0 0 42.88689 37.275253"
   version="1.1"
   id="svg17504"
   inkscape:version="1.4.2 (ebf0e940d0, 2025-05-08)"
   sodipodi:docname="spadeskull.svg"
   inkscape:export-filename="spadeskull.png"
   inkscape:export-xdpi="300"
   inkscape:export-ydpi="300"
   xmlns:inkscape="http://www.inkscape.org/namespaces/inkscape"
   xmlns:sodipodi="http://sodipodi.sourceforge.net/DTD/sodipodi-0.dtd"
   xmlns="http://www.w3.org/2000/svg"
   xmlns:svg="http://www.w3.org/2000/svg">
  <sodipodi:namedview
     id="namedview17506"
     pagecolor="#505050"
     bordercolor="#eeeeee"
     borderopacity="1"
     inkscape:pageshadow="0"
     inkscape:pageopacity="0"
     inkscape:pagecheckerboard="0"
     inkscape:document-units="mm"
     showgrid="false"
     inkscape:zoom="7.8887015"
     inkscape:cx="75.170799"
     inkscape:cy="88.607738"
     inkscape:window-width="2916"
     inkscape:window-height="1650"
     inkscape:window-x="0"
     inkscape:window-y="0"
     inkscape:window-maximized="0"
     inkscape:current-layer="layer1"
     inkscape:showpageshadow="2"
     inkscape:deskcolor="#d1d1d1" />
  <defs
     id="defs17501" />
  <g
     inkscape:label="Layer 1"
     inkscape:groupmode="layer"
     id="layer1"
     transform="translate(-2.919,-3.594661)">
    <path
       id="path1"
       style="fill:#c8c4b7;stroke:none;stroke-width:0.264583px;stroke-linecap:butt;stroke-linejoin:miter;stroke-opacity:1"
       d="M 10.611037,3.820487 C 9.7128179,3.847072 17.78105,14.304018 17.4716,20.388985 16.465456,20.527066 15.3959,20.682937 14.258876,20.858207 14.041893,20.426575 13.732391,19.937519 13.371075,19.317216 11.89786,16.788017 8.4229898,14.128185 2.9944476,13.240584 c 0,0 4.1949023,7.18255 -0.028939,17.300753 6.1831136,-0.193853 9.1567924,-4.647429 10.5838504,-6.400127 0.39115,-0.480406 0.659771,-0.880759 0.826306,-1.238167 1.057,0.152139 2.134909,0.279249 3.212207,0.385506 -0.423073,6.236053 -7.8893703,15.896777 -6.815088,15.68173 1.090704,-0.218334 9.08608,-7.890852 9.442577,-15.519466 1.098367,0.08577 1.394549,0.15187 2.441969,0.202055 -0.943746,5.77348 -4.869297,14.512243 -3.787882,14.295768 1.102114,-0.220618 5.126378,-6.919954 6.348614,-14.21087 0.943032,0.031 1.137298,0.03973 1.967674,0.0505 -0.251656,5.661189 -3.038836,12.719946 -1.968355,12.390459 1.08153,-0.33289 4.008495,-5.02918 4.445018,-12.341742 0.975737,-3.81e-4 1.170487,-0.04814 1.785092,-0.06008 -0.343068,3.739604 -0.299517,5.308138 -0.879154,7.278407 -0.18471,0.627854 -0.405206,1.198776 -0.549189,1.551295 -0.07333,0.179534 -1.263745,2.115515 -0.900197,2.019765 5.749168,-2.069786 6.26471,-2.178127 10.547677,-4.845183 2.120737,-1.320609 6.13916,-6.103862 6.13916,-7.952486 0,-1.848624 -3.06042,-6.561834 -7.269324,-9.10487 -4.208907,-2.543037 -5.373937,-3.2576511 -7.417118,-4.0534998 -0.454133,-0.1440822 -0.168118,0.9387771 0.06206,1.4643658 0.269733,0.615892 0.400397,1.273683 0.464523,2.030511 0.187668,2.214908 0.199296,4.773571 0.08888,7.353557 -0.855803,-0.103953 -2.33405,-0.186072 -4.773352,-0.0739 -0.855442,0.03934 -1.718618,0.118263 -1.718618,0.118263 C 24.127398,12.000667 19.766326,4.9004743 18.628119,4.6726314 17.494604,4.4457278 21.862661,14.058153 22.53124,19.78127 21.550422,19.8797 21.313448,19.86483 20.146203,20.011481 19.252302,10.920195 11.775717,4.0501089 10.646694,3.8241044 c -0.0132,-0.00264 -0.02501,-0.00393 -0.03566,-0.00362 z m 16.350423,15.624369 2.894175,-0.04612 C 29.508586,11.762346 26.085477,6.7835068 24.976052,6.4420324 23.866627,6.1005579 26.900603,13.695164 26.96146,19.444856 Z"
       sodipodi:nodetypes="cccsccsccsccsccsccsscssscsscscsccscccccc" />
    <circle
       style="opacity:0.873272;fill:#000000;stroke:none;stroke-width:0.598901;stroke-linecap:round;paint-order:stroke fill markers"
       id="path10"
       cx="38.154366"
       cy="19.615829"
       r="3.6102619" />
  </g>
</svg>
